# xmcd CD database file
#
# Track frame offsets:
#	150
#	15074
#	30775
#	46002
#	60455
#	78921
#	94468
#	108183
#	125085
#	145770
#	162382
#	176667
#	193844
#	207678
#	221589
#	232573
#	248989
#	262222
#	277036
#	294775
#	306509
#	320643
#	339698
#
# Disc length: 4690 seconds
#
# Revision: 1
# Processed by: cddbd v1.5.2PL0 Copyright (c) Steve Scherf et al.
# Submitted via: CDex 1.70beta2
#
DISCID=4d125017
DTITLE=Norah Jones - Feels Like Home
DYEAR=2004
DGENRE=Blues
TTITLE0=Norah Jones - Sunrise
TTITLE1=Norah Jones - What Am I To You
TTITLE2=Norah Jones - Those Sweet Words
TTITLE3=Norah Jones - Carnival Town
TTITLE4=Norah Jones - In The Morning
TTITLE5=Norah Jones - Be Here To Love Me
TTITLE6=Norah Jones - Creepin' In
TTITLE7=Norah Jones - Toes
TTITLE8=Norah Jones - Humble Me
TTITLE9=Norah Jones - Above Ground
TTITLE10=Norah Jones - The Long Way Home
TTITLE11=Norah Jones - The Prettiest Thing
TTITLE12=Norah Jones - Don't Miss You At All
TTITLE13=Norah Jones - Don't Know Why
TTITLE14=Norah Jones - Seven Years
TTITLE15=Norah Jones - Cold Cold Heart
TTITLE16=Norah Jones - Feelin' The Same Way
TTITLE17=Norah Jones - Come Away With Me
TTITLE18=Norah Jones - Shoot The Moon
TTITLE19=Norah Jones - Turn Me On
TTITLE20=Norah Jones - Lonestar
TTITLE21=Norah Jones - I've Got To See You Again
TTITLE22=Norah Jones - Painter Song
EXTD=YEAR: 2004
EXTT0=
EXTT1=
EXTT2=
EXTT3=
EXTT4=
EXTT5=
EXTT6=
EXTT7=
EXTT8=
EXTT9=
EXTT10=
EXTT11=
EXTT12=
EXTT13=
EXTT14=
EXTT15=
EXTT16=
EXTT17=
EXTT18=
EXTT19=
EXTT20=
EXTT21=
EXTT22=
PLAYORDER=
